<svg width="263" height="295" viewBox="0 0 263 295" fill="none" xmlns="http://www.w3.org/2000/svg">
<path d="M149.002 149.719C169.248 162.811 202.892 177.387 217.548 189.257C225.923 196.04 226.555 222.198 177.135 208.586C177.135 208.586 167.244 205.381 148.122 193.016" stroke="black"/>
<g filter="url(#filter0_f_256_277)">
<path d="M1.24986 288.504C1.24986 288.516 1.25409 288.551 1.30757 288.611C1.36237 288.672 1.45618 288.746 1.60181 288.828C1.89282 288.991 2.34193 289.16 2.95409 289.331C4.1745 289.671 5.9857 290.002 8.33273 290.318C13.0235 290.95 19.8174 291.521 28.2199 292C45.0229 292.958 68.2395 293.55 93.8862 293.55C119.533 293.55 142.749 292.958 159.552 292C167.955 291.521 174.749 290.95 179.44 290.318C181.787 290.002 183.598 289.671 184.818 289.331C185.43 289.16 185.879 288.991 186.171 288.828C186.316 288.746 186.41 288.672 186.465 288.611C186.518 288.551 186.522 288.516 186.522 288.504C186.522 288.492 186.518 288.458 186.465 288.398C186.41 288.336 186.316 288.263 186.171 288.181C185.879 288.017 185.43 287.848 184.818 287.678C183.598 287.338 181.787 287.007 179.44 286.691C174.749 286.058 167.955 285.488 159.552 285.009C142.749 284.051 119.533 283.458 93.8862 283.458C68.2395 283.458 45.0229 284.051 28.2199 285.009C19.8174 285.488 13.0235 286.058 8.33273 286.691C5.9857 287.007 4.1745 287.338 2.95409 287.678C2.34193 287.848 1.89282 288.017 1.60181 288.181C1.45618 288.263 1.36237 288.336 1.30757 288.398C1.25409 288.458 1.24986 288.492 1.24986 288.504Z" stroke="black" stroke-width="0.5"/>
</g>
<path d="M69.0601 239.43C69.0601 239.43 62.3626 233.402 61.0231 218.668M56.3349 218.668C54.9954 222.686 56.3349 228.044 56.3349 228.044" stroke="black"/>
<path d="M95.1804 36.4966C95.1804 36.4966 92.5014 36.4966 91.1619 37.8361" stroke="black"/>
<path d="M152.109 89.4066C152.109 89.4066 148.76 96.1041 144.742 98.7831" stroke="black"/>
<path d="M140.053 83.7092C140.053 83.7092 136.4 91.3634 132.016 94.4251" stroke="black"/>
<path d="M121.97 92.7554C123.979 86.7276 127.998 90.0764 127.998 90.0764" stroke="black"/>
<path d="M92.5014 60.6075C92.5014 60.6075 93.1711 50.5613 102.548 51.231M93.8409 86.0579C93.8409 86.0579 90.4922 82.7091 87.1434 86.0579" stroke="black"/>
<path d="M90.4921 27.1201C90.4921 34.4874 91.3917 37.1664 92.5014 37.1664C93.611 37.1664 94.5106 33.4083 94.5106 27.1201C94.5106 20.832 96.5198 15.0647 93.1711 15.0647C92.0614 15.0647 90.4921 17.7437 90.4921 27.1201Z" fill="#C4C4C4"/>
<path d="M66.3812 27.7899C67.7207 35.8269 75.3177 45.2033 76.4274 45.2033C77.5371 45.2033 73.0787 36.4966 71.1416 27.7899C71.1416 21.5018 73.0789 17.074 69.8021 15.7345C65.3959 13.9332 65.7115 21.7622 66.3812 27.7899Z" fill="#C4C4C4"/>
<path d="M92.5013 37.1663C92.5013 37.1663 91.8316 24.4411 93.8408 16.4042M75.0879 41.1848C75.0879 41.1848 71.0694 30.4689 71.0694 17.7437" stroke="black"/>
<path d="M95.8502 272.248C95.8502 272.248 110.585 273.587 125.319 269.569" stroke="black"/>
<path d="M128.294 277.812C131.779 276.882 136.408 272.041 136.408 272.041" stroke="black"/>
<path d="M151.439 148.344C151.439 148.344 134.695 161.739 112.594 144.326" stroke="black"/>
<path d="M157.467 142.317C157.467 142.317 101.878 140.977 98.529 97.4436C98.529 97.4436 94.5106 96.7739 91.1618 102.132" stroke="black"/>
<path d="M132.516 240.77C132.516 240.977 132.609 241.212 132.852 241.468C133.098 241.726 133.478 241.982 133.985 242.207C134.998 242.657 136.433 242.949 138.044 242.949C139.655 242.949 141.09 242.657 142.103 242.207C142.61 241.982 142.99 241.726 143.236 241.468C143.479 241.212 143.572 240.977 143.572 240.77C143.572 240.562 143.479 240.327 143.236 240.071C142.99 239.813 142.61 239.558 142.103 239.332C141.09 238.882 139.655 238.591 138.044 238.591C136.433 238.591 134.998 238.882 133.985 239.332C133.478 239.558 133.098 239.813 132.852 240.071C132.609 240.327 132.516 240.562 132.516 240.77Z" fill="white" stroke="black"/>
<path d="M161.034 106.382C161.561 108.294 162.436 110.001 163.398 111.212C164.384 112.452 165.341 113.036 166.072 113.036C166.802 113.036 167.437 112.452 167.738 111.212C168.032 110.001 167.964 108.294 167.436 106.382C166.909 104.47 166.034 102.763 165.072 101.552C164.086 100.312 163.129 99.7281 162.399 99.7281C161.668 99.7281 161.033 100.312 160.732 101.552C160.438 102.763 160.506 104.47 161.034 106.382Z" fill="white" stroke="black"/>
<path d="M192.823 113.912C192.093 113.912 191.458 113.329 191.157 112.088C190.863 110.877 190.931 109.17 191.459 107.258C191.98 105.369 193.101 103.322 194.336 101.756C194.953 100.973 195.582 100.332 196.156 99.8937C196.536 99.6043 196.861 99.4261 197.13 99.3364L197.04 109.52C196.433 110.85 195.684 111.966 194.922 112.742C194.133 113.545 193.408 113.912 192.823 113.912Z" fill="white" stroke="black"/>
<path d="M100.105 78.5998C100.878 82.8602 102.612 86.6933 104.764 89.4446C106.925 92.207 109.434 93.7987 111.788 93.7987C114.141 93.7987 116.073 92.207 117.23 89.4446C118.383 86.6933 118.725 82.8602 117.952 78.5998C117.178 74.3394 115.444 70.5063 113.292 67.755C111.132 64.9926 108.623 63.4009 106.269 63.4009C103.915 63.4009 101.984 64.9926 100.826 67.755C99.6736 70.5063 99.3314 74.3394 100.105 78.5998Z" stroke="black"/>
<path d="M126.722 75.3963C126.942 79.7172 127.673 83.34 128.682 85.8617C129.188 87.1252 129.75 88.0783 130.324 88.704C130.891 89.3222 131.429 89.5829 131.936 89.5829C132.45 89.5829 133.064 89.2585 133.691 88.5181C134.306 87.7914 134.88 86.7257 135.334 85.4015C136.243 82.7545 136.652 79.1461 136.032 75.3419C135.405 71.4995 134.337 68.5632 133.107 66.6074C131.867 64.6344 130.552 63.78 129.418 63.78C128.311 63.78 127.512 64.5304 127.05 66.4814C126.591 68.4245 126.518 71.3811 126.722 75.3963Z" stroke="black"/>
<ellipse cx="4.01848" cy="6.02773" rx="4.01848" ry="6.02773" transform="matrix(-1 0 0.151951 0.988388 114.603 78.6907)" fill="black"/>
<ellipse cx="3.56674" cy="5.35011" rx="3.56674" ry="5.35011" transform="matrix(-1 0 0.0716715 0.997428 133.928 76.0117)" fill="black"/>
<ellipse cx="0.736722" cy="1.44665" rx="0.736722" ry="1.44665" transform="matrix(-1 0 0.0716715 0.997428 131.713 77.3512)" fill="white"/>
<ellipse cx="1.15754" cy="1.44665" rx="1.15754" ry="1.44665" transform="matrix(-1 0 0.0716715 0.997428 111.717 81.3697)" fill="white"/>
<path d="M80.4457 149.684C80.4458 173.795 86.4735 209.961 84.4642 228.714C83.316 239.43 61.6929 254.164 46.2886 205.273C46.2886 205.273 43.6098 195.227 43.6098 172.455" stroke="black"/>
<path d="M81.1519 290.766C82.4773 290.599 83.9298 290.411 84.6728 290.298C84.6635 288.409 84.5282 286.894 84.1961 285.849C84.0242 285.308 83.8059 284.913 83.5434 284.655C83.2876 284.404 82.98 284.273 82.5954 284.273C81.8075 284.273 80.8259 284.847 80.028 285.954C79.2376 287.051 78.655 288.639 78.655 290.581C78.655 290.733 78.6571 290.908 78.6613 291.075C78.8028 291.058 78.9943 291.034 79.2229 291.006C79.7305 290.944 80.4209 290.858 81.1519 290.766Z" stroke="black" stroke-width="0.5"/>
<path d="M89.4049 282.643C88.7498 282.643 88.1037 283.126 87.6071 284.022C87.1152 284.909 86.8031 286.153 86.8031 287.539V289.426L91.1653 288.623L90.4932 283.103C90.1498 282.8 89.7806 282.643 89.4049 282.643Z" stroke="black" stroke-width="0.5"/>
<path d="M124.336 289.137C125.661 288.97 127.114 288.781 127.857 288.668C127.848 286.779 127.712 285.265 127.38 284.219C127.208 283.678 126.99 283.283 126.727 283.025C126.472 282.774 126.164 282.643 125.779 282.643C124.992 282.643 124.01 283.217 123.212 284.325C122.422 285.422 121.839 287.009 121.839 288.952C121.839 289.103 121.841 289.279 121.845 289.445C121.987 289.428 122.178 289.405 122.407 289.377C122.915 289.314 123.605 289.229 124.336 289.137Z" stroke="black" stroke-width="0.5"/>
<path d="M132.589 281.014C131.934 281.014 131.288 281.496 130.791 282.392C130.299 283.28 129.987 284.523 129.987 285.91V287.797L134.349 286.993L133.677 281.474C133.334 281.17 132.964 281.014 132.589 281.014Z" stroke="black" stroke-width="0.5"/>
<path d="M134.695 274.257L135.143 274.033L135.195 274.139V274.257H134.695ZM134.695 287.652H135.195V288.07L134.784 288.144L134.695 287.652ZM95.8501 286.312L95.6361 286.764L95.3501 286.629V286.312H95.8501ZM95.8501 272.248V271.748H96.3501V272.248H95.8501ZM91.1619 272.248H90.6619V271.748H91.1619V272.248ZM91.1619 288.322H91.6619V288.609L91.4138 288.753L91.1619 288.322ZM53.656 288.322L53.4491 288.777L53.156 288.643V288.322H53.656ZM53.656 270.908L54.0023 270.547L54.156 270.695V270.908H53.656ZM35.5728 234.072L36.0718 234.04L35.5728 234.072ZM60.3535 113.518L60.6441 113.111L60.9467 113.327L60.8268 113.679L60.3535 113.518ZM61.693 96.7738L62.0913 96.4716L62.5492 97.0752L61.8143 97.2589L61.693 96.7738ZM71.7392 46.5428L72.1355 46.2379L72.6144 46.8605L71.8477 47.0309L71.7392 46.5428ZM77.7669 41.8546L78.0793 42.245L77.2102 42.9403L77.2676 41.8288L77.7669 41.8546ZM88.4829 37.8361L88.9353 37.6232L89.1749 38.1325L88.641 38.3104L88.4829 37.8361ZM97.1896 1L96.8963 0.595029C97.0113 0.511771 97.1563 0.481309 97.295 0.511242C97.4338 0.541174 97.5533 0.628679 97.6237 0.75193L97.1896 1ZM95.1804 36.4966L95.1457 36.9954L94.6093 36.9582L94.6854 36.4259L95.1804 36.4966ZM139.966 83.1399H139.466V83.1201L139.468 83.1004L139.966 83.1399ZM152.109 89.4066L152.509 89.7066L152.163 90.1678L151.755 89.7602L152.109 89.4066ZM164.164 57.2588L164.642 57.407L164.164 57.2588ZM196.982 106.82L197.482 106.82L197.482 106.83L196.982 106.82ZM157.467 142.317L157.038 142.059L157.161 141.855L157.396 141.822L157.467 142.317ZM151.439 148.344L151.018 148.614L150.719 148.146L151.216 147.897L151.439 148.344ZM73.0787 5.01847L72.6335 5.24602L72.6335 5.24602L73.0787 5.01847ZM65.7115 6.35797L65.2452 6.17747L65.2452 6.17747L65.7115 6.35797ZM176.22 59.268L176.554 58.8962L176.572 58.9123L176.588 58.9301L176.22 59.268ZM140.053 265.55L139.556 265.495L139.589 265.201L139.862 265.088L140.053 265.55ZM146.466 76.6399L146.036 76.3856L146.061 76.3439L146.093 76.3078L146.466 76.6399ZM135.195 274.257V287.652H134.195V274.257H135.195ZM134.695 287.652C134.784 288.144 134.784 288.144 134.783 288.144C134.783 288.144 134.783 288.144 134.782 288.144C134.781 288.144 134.78 288.145 134.778 288.145C134.775 288.145 134.77 288.146 134.764 288.148C134.751 288.15 134.731 288.153 134.706 288.158C134.655 288.166 134.58 288.179 134.482 288.196C134.286 288.229 133.998 288.277 133.626 288.335C132.883 288.452 131.809 288.613 130.48 288.786C127.823 289.132 124.147 289.532 120.07 289.742C111.949 290.16 102.123 289.837 95.6361 286.764L96.0641 285.86C102.302 288.815 111.899 289.162 120.019 288.743C124.063 288.535 127.712 288.138 130.351 287.794C131.67 287.622 132.735 287.463 133.47 287.348C133.838 287.29 134.123 287.243 134.316 287.21C134.412 287.194 134.485 287.181 134.534 287.172C134.559 287.168 134.577 287.165 134.589 287.163C134.595 287.162 134.6 287.161 134.603 287.16C134.604 287.16 134.606 287.16 134.606 287.16C134.607 287.16 134.607 287.16 134.607 287.16C134.607 287.16 134.607 287.16 134.695 287.652ZM95.3501 286.312V272.248H96.3501V286.312H95.3501ZM95.8501 272.748H91.1619V271.748H95.8501V272.748ZM91.6619 272.248V288.322H90.6619V272.248H91.6619ZM91.4138 288.753C89.3228 289.973 86.3602 290.78 83.0188 291.265C79.6675 291.751 75.8924 291.919 72.1466 291.835C64.6785 291.667 57.2277 290.494 53.4491 288.777L53.8629 287.866C57.4515 289.498 64.7352 290.668 72.169 290.836C75.8742 290.919 79.5918 290.752 82.8752 290.275C86.1685 289.798 88.9825 289.014 90.9099 287.89L91.4138 288.753ZM53.156 288.322V270.908H54.156V288.322H53.156ZM35.0739 234.104C33.7718 213.922 39.989 183.711 46.507 158.6C49.769 146.033 53.1119 134.723 55.6393 126.555C56.903 122.471 57.9629 119.172 58.7071 116.894C59.0792 115.755 59.3723 114.871 59.5725 114.272C59.6726 113.972 59.7494 113.743 59.8013 113.589C59.8272 113.513 59.8469 113.454 59.8601 113.415C59.8668 113.396 59.8717 113.381 59.8751 113.371C59.8768 113.366 59.878 113.363 59.8789 113.36C59.8793 113.359 59.8796 113.358 59.8799 113.357C59.8801 113.357 59.8802 113.356 60.3535 113.518C60.8268 113.679 60.8267 113.679 60.8265 113.68C60.8263 113.68 60.826 113.681 60.8256 113.682C60.8248 113.685 60.8236 113.688 60.8219 113.693C60.8187 113.703 60.8137 113.717 60.8072 113.736C60.7941 113.775 60.7746 113.833 60.7488 113.909C60.6973 114.062 60.6207 114.29 60.521 114.588C60.3214 115.186 60.029 116.068 59.6577 117.205C58.915 119.479 57.8566 122.772 56.5946 126.851C54.0705 135.008 50.7321 146.303 47.4749 158.851C40.9544 183.971 34.7813 214.038 36.0718 234.04L35.0739 234.104ZM60.0629 113.924C58.7422 112.981 58.0315 111.411 57.7162 109.672C57.3998 107.926 57.4679 105.941 57.7667 104.062C58.0658 102.183 58.6007 100.38 59.2401 98.9924C59.5594 98.2996 59.9119 97.695 60.2853 97.2337C60.6492 96.7841 61.0802 96.4116 61.5717 96.2888L61.8143 97.2589C61.636 97.3035 61.3764 97.4751 61.0626 97.8628C60.7584 98.2386 60.4464 98.7642 60.1483 99.411C59.5529 100.703 59.0413 102.416 58.7543 104.22C58.4671 106.025 58.4097 107.891 58.7002 109.494C58.9919 111.103 59.6207 112.38 60.6441 113.111L60.0629 113.924ZM61.2946 97.076C53.7793 87.1694 54.8341 74.7417 58.46 64.7072C60.2761 59.6814 62.7472 55.2232 65.1506 51.9304C66.3521 50.2844 67.5432 48.9206 68.6348 47.9204C69.7109 46.9346 70.744 46.2517 71.6307 46.0547L71.8477 47.0309C71.2274 47.1687 70.356 47.6998 69.3103 48.6578C68.2802 49.6015 67.1324 50.9114 65.9584 52.52C63.6108 55.7362 61.1844 60.1103 59.4005 65.047C55.8267 74.9375 54.8723 86.9556 62.0913 96.4716L61.2946 97.076ZM77.4546 41.4641C79.1989 40.0687 80.9416 39.375 82.7364 38.8623C83.6269 38.6078 84.5419 38.3949 85.4641 38.167C86.3919 37.9376 87.3393 37.6902 88.3248 37.3617L88.641 38.3104C87.6172 38.6517 86.6391 38.9066 85.7041 39.1377C84.7636 39.3702 83.8787 39.5759 83.0111 39.8238C81.2897 40.3156 79.6837 40.9615 78.0793 42.245L77.4546 41.4641ZM88.0305 38.049C82.5929 26.4941 84.8002 17.115 88.3801 10.6369C90.1658 7.40579 92.2898 4.9 93.9665 3.20209C94.8053 2.35261 95.5337 1.70385 96.0541 1.26616C96.3144 1.04727 96.5228 0.881048 96.6672 0.768786C96.7394 0.712652 96.7956 0.669998 96.8343 0.640988C96.8536 0.626482 96.8686 0.615386 96.879 0.607719C96.8842 0.603886 96.8883 0.60091 96.8912 0.598795C96.8926 0.597737 96.8938 0.596894 96.8946 0.596266C96.8951 0.595952 96.8955 0.595643 96.8957 0.595486C96.8961 0.59523 96.8963 0.595029 97.1896 1C97.4829 1.40497 97.483 1.40488 97.483 1.40484C97.483 1.40489 97.4829 1.40491 97.4828 1.40502C97.4825 1.40525 97.4819 1.40569 97.481 1.40635C97.4792 1.40766 97.4762 1.40983 97.4721 1.41284C97.4639 1.41887 97.4512 1.42829 97.4341 1.4411C97.4 1.4667 97.3484 1.5058 97.281 1.55824C97.1461 1.66312 96.9477 1.82131 96.6978 2.03148C96.1979 2.45189 95.4926 3.07984 94.678 3.90473C93.0478 5.55556 90.9859 7.98915 89.2554 11.1206C85.803 17.3678 83.6569 26.4067 88.9353 37.6232L88.0305 38.049ZM97.6237 0.75193C99.0215 3.19802 99.6136 6.38965 99.7299 9.82584C99.8465 13.2699 99.4862 17.0082 98.9396 20.582C98.3927 24.1577 97.6571 27.5829 97.0179 30.4015C96.3741 33.2406 95.8389 35.422 95.6753 36.5673L94.6854 36.4259C94.8566 35.2271 95.4098 32.9714 96.0427 30.1804C96.6802 27.369 97.4097 23.9711 97.9511 20.4308C98.4929 16.8885 98.8442 13.2177 98.7305 9.85966C98.6166 6.49373 98.0367 3.49021 96.7555 1.24807L97.6237 0.75193ZM95.215 35.9978C107.347 36.8403 116.265 40.1986 122.809 44.788C129.352 49.377 133.496 55.1779 136.111 60.8652C138.724 66.5493 139.812 72.1223 140.247 76.2707C140.465 78.3459 140.52 80.0678 140.52 81.273C140.52 81.8757 140.506 82.3495 140.493 82.6739C140.486 82.8362 140.479 82.9611 140.474 83.0462C140.471 83.0888 140.469 83.1214 140.467 83.1437C140.467 83.1549 140.466 83.1634 140.466 83.1694C140.465 83.1724 140.465 83.1747 140.465 83.1764C140.465 83.1773 140.465 83.178 140.465 83.1785C140.465 83.1791 140.465 83.1795 139.966 83.1399C139.468 83.1004 139.468 83.1005 139.468 83.1004C139.468 83.1002 139.468 83.1 139.468 83.0995C139.468 83.0985 139.468 83.0969 139.468 83.0947C139.469 83.0902 139.469 83.0831 139.47 83.0734C139.471 83.0541 139.473 83.0245 139.476 82.985C139.481 82.9061 139.487 82.7875 139.494 82.6319C139.507 82.3205 139.52 81.8609 139.52 81.2732C139.52 80.0977 139.466 78.4109 139.253 76.375C138.825 72.301 137.758 66.841 135.202 61.2829C132.648 55.7279 128.609 50.0773 122.235 45.6067C115.861 41.1365 107.124 37.8272 95.1457 36.9954L95.215 35.9978ZM151.709 89.1066C153.674 86.4871 155.16 83.3609 156.912 78.4393C158.666 73.5127 160.67 66.8315 163.687 57.1106L164.642 57.407C161.631 67.1087 159.617 73.8225 157.854 78.7746C156.09 83.7318 154.563 86.9682 152.509 89.7066L151.709 89.1066ZM197.482 106.83C197.313 115.292 195.026 121.752 191.595 126.685C188.167 131.615 183.615 134.992 178.955 137.322C169.653 141.973 159.833 142.484 157.538 142.812L157.396 141.822C159.789 141.48 169.391 140.986 178.508 136.428C183.056 134.153 187.463 130.875 190.774 126.114C194.082 121.357 196.316 115.092 196.482 106.81L197.482 106.83ZM157.896 142.574C156.883 144.262 156.021 145.474 155.058 146.438C154.089 147.407 153.035 148.105 151.663 148.792L151.216 147.897C152.522 147.244 153.478 146.603 154.351 145.73C155.229 144.852 156.041 143.72 157.038 142.059L157.896 142.574ZM53.656 270.908C53.3098 271.269 53.3096 271.269 53.3094 271.268C53.3092 271.268 53.3089 271.268 53.3086 271.268C53.3079 271.267 53.307 271.266 53.3058 271.265C53.3035 271.263 53.3002 271.26 53.2959 271.255C53.2873 271.247 53.2747 271.235 53.2582 271.219C53.2253 271.187 53.177 271.139 53.1143 271.076C52.9889 270.951 52.8059 270.766 52.5731 270.523C52.1075 270.038 51.4426 269.322 50.6414 268.4C49.0393 266.556 46.8903 263.88 44.6991 260.551C40.3209 253.899 35.7514 244.606 35.0739 234.104L36.0718 234.04C36.7338 244.301 41.2058 253.425 45.5344 260.001C47.6965 263.286 49.8172 265.926 51.3964 267.744C52.1858 268.653 52.8395 269.356 53.2948 269.831C53.5224 270.068 53.7004 270.248 53.821 270.369C53.8812 270.429 53.9271 270.474 53.9577 270.504C53.973 270.519 53.9844 270.53 53.9919 270.537C53.9956 270.541 53.9984 270.544 54.0001 270.545C54.001 270.546 54.0016 270.547 54.0019 270.547C54.0021 270.547 54.0022 270.547 54.0023 270.547C54.0023 270.547 54.0023 270.547 53.656 270.908ZM73.5239 4.79093C76.5694 10.75 77.7426 20.0557 78.1665 27.8008C78.3792 31.687 78.4042 35.205 78.376 37.7513C78.3619 39.0247 78.3346 40.0556 78.3107 40.7688C78.2987 41.1254 78.2877 41.4027 78.2796 41.591C78.2755 41.6852 78.2722 41.7572 78.2699 41.8058C78.2687 41.8301 78.2678 41.8486 78.2672 41.8611C78.2669 41.8673 78.2667 41.872 78.2665 41.8753C78.2664 41.8769 78.2664 41.8781 78.2663 41.8789C78.2663 41.8794 78.2663 41.8797 78.2663 41.8799C78.2663 41.8802 78.2663 41.8804 77.7669 41.8546C77.2676 41.8288 77.2676 41.8288 77.2676 41.8286C77.2676 41.8285 77.2676 41.8282 77.2676 41.8279C77.2677 41.8272 77.2677 41.8262 77.2678 41.8247C77.2679 41.8219 77.2682 41.8175 77.2685 41.8116C77.269 41.7998 77.2699 41.7821 77.271 41.7585C77.2733 41.7113 77.2765 41.6408 77.2805 41.5481C77.2885 41.3627 77.2994 41.0886 77.3112 40.7354C77.3349 40.0288 77.3621 39.0053 77.3761 37.7403C77.4041 35.2096 77.3792 31.7143 77.168 27.8554C76.7441 20.1102 75.5731 10.9978 72.6335 5.24602L73.5239 4.79093ZM71.3429 46.8477C68.2533 42.8312 64.6831 37.9092 62.9152 31.3589C61.1439 24.7957 61.1931 16.6454 65.2452 6.17747L66.1778 6.53846C62.1929 16.8327 62.1713 24.7647 63.8807 31.0983C65.5936 37.4449 69.0557 42.2342 72.1355 46.2379L71.3429 46.8477ZM72.6335 5.24602C72.3693 4.72921 72.0226 4.00722 71.5854 3.33384C71.1397 2.64732 70.6553 2.10225 70.1602 1.87193C69.9269 1.76341 69.699 1.72831 69.4629 1.77453C69.2219 1.82172 68.9298 1.9622 68.589 2.27747C67.8942 2.92014 67.0777 4.21372 66.1778 6.53846L65.2452 6.17747C66.1601 3.81398 67.0435 2.34486 67.9099 1.54338C68.3497 1.13659 68.8035 0.884639 69.2707 0.793164C69.7428 0.700728 70.1854 0.780736 70.582 0.965235C71.3466 1.32094 71.9594 2.0735 72.4241 2.78927C72.8974 3.51817 73.2746 4.30311 73.5239 4.79093L72.6335 5.24602ZM163.687 57.1106C164.103 55.7685 164.542 54.6562 165.131 53.9033C165.432 53.5189 165.784 53.2124 166.207 53.0206C166.633 52.8275 167.1 52.7648 167.607 52.8219C168.594 52.9332 169.759 53.5036 171.181 54.487C172.616 55.4793 174.373 56.9353 176.554 58.8962L175.885 59.6398C173.713 57.6869 171.994 56.265 170.612 55.3095C169.218 54.3452 168.224 53.8979 167.495 53.8156C167.142 53.7759 166.86 53.8224 166.62 53.9313C166.377 54.0415 166.146 54.2298 165.919 54.5198C165.452 55.1155 165.057 56.07 164.642 57.407L163.687 57.1106ZM176.588 58.9301C187.685 71.0354 192.916 81.4816 195.368 89.682C197.82 97.883 197.482 103.815 197.482 106.82L196.482 106.82C196.482 103.798 196.814 98.0088 194.41 89.9684C192.006 81.9275 186.856 71.6115 175.851 59.6059L176.588 58.9301ZM151.86 148.075C159.603 160.194 169.346 184.386 170.858 208.171C171.615 220.069 170.315 231.9 165.644 242.077C160.967 252.267 152.921 260.772 140.244 266.012L139.862 265.088C152.301 259.947 160.161 251.625 164.735 241.66C169.315 231.681 170.611 220.03 169.86 208.235C168.359 184.635 158.679 160.605 151.018 148.614L151.86 148.075ZM140.55 265.605C140.197 268.781 138.602 270.725 137.214 272.026C136.87 272.349 136.537 272.634 136.244 272.883C135.947 273.137 135.7 273.347 135.505 273.537C135.305 273.732 135.202 273.867 135.158 273.96C135.126 274.026 135.141 274.029 135.143 274.033L134.248 274.48C134.083 274.149 134.118 273.818 134.254 273.531C134.377 273.271 134.588 273.034 134.807 272.821C135.031 272.603 135.307 272.368 135.595 272.122C135.889 271.872 136.205 271.602 136.53 271.297C137.821 270.086 139.24 268.347 139.556 265.495L140.55 265.605ZM140.466 83.1399C140.466 83.2762 140.471 83.5313 140.537 83.708C140.568 83.793 140.588 83.787 140.558 83.7695C140.506 83.7399 140.493 83.7766 140.599 83.7358C140.718 83.6903 140.917 83.57 141.214 83.2956C141.505 83.0255 141.868 82.6273 142.315 82.0577C143.21 80.9184 144.416 79.1271 146.036 76.3856L146.897 76.8943C145.267 79.6528 144.035 81.4864 143.102 82.6753C142.635 83.2697 142.236 83.7114 141.893 84.0292C141.555 84.3427 141.246 84.5584 140.958 84.6691C140.658 84.7846 140.341 84.7978 140.061 84.6373C139.802 84.489 139.669 84.2447 139.599 84.0562C139.462 83.6861 139.466 83.2537 139.466 83.1399H140.466ZM146.093 76.3078C146.623 75.7114 147.188 75.3296 147.794 75.3315C148.423 75.3334 148.89 75.7433 149.225 76.2301C149.563 76.7226 149.837 77.3913 150.069 78.135C150.303 78.8855 150.504 79.7459 150.683 80.6429C151.04 82.4212 151.328 84.4306 151.613 86.0218C151.758 86.8299 151.902 87.5353 152.056 88.0826C152.134 88.3561 152.21 88.5793 152.286 88.7509C152.364 88.9295 152.428 89.0182 152.462 89.0531L151.755 89.7602C151.592 89.5968 151.469 89.3771 151.371 89.1541C151.269 88.9239 151.178 88.652 151.094 88.3538C150.926 87.7576 150.775 87.0129 150.629 86.1982C150.332 84.5439 150.059 82.617 149.703 80.8393C149.526 79.9583 149.333 79.1359 149.114 78.4325C148.893 77.7223 148.655 77.166 148.401 76.7965C148.143 76.4212 147.937 76.3319 147.791 76.3315C147.622 76.3309 147.31 76.4435 146.84 76.9721L146.093 76.3078Z" fill="black"/>
<path d="M220.799 203.414C220.799 203.414 211.788 203.426 200.922 193.385M197.442 196.525C199.14 200.406 203.724 203.486 203.724 203.486" stroke="black"/>
<path d="M149.349 194.131C149.744 195.034 149.966 196.102 150.134 197.069C150.259 197.788 150.461 199.345 149.766 197.48C149.012 195.455 148.116 193.288 147.821 191.131C147.735 190.498 148.348 191.354 148.416 191.481C149.025 192.606 149.425 193.872 149.84 195.075C149.908 195.274 150.472 196.94 150.551 197.186C150.622 197.405 150.697 197.624 150.754 197.848C150.84 198.188 150.796 198.175 150.613 197.909C149.864 196.826 149.39 195.533 148.883 194.327C148.426 193.24 147.992 192.178 147.693 191.039" stroke="black" stroke-linecap="square"/>
<path d="M153.765 185.518C152.187 188.645 150.479 191.796 148.502 194.689C148.184 195.155 147.399 196.138 147.521 194.99C147.666 193.619 148 192.231 148.594 190.984C148.837 190.475 149.248 189.602 149.766 189.285C150.26 188.982 150.34 190.343 150.349 190.923C150.361 191.782 150.307 192.527 150.238 193.376C150.207 193.755 150.304 194.845 150.122 194.511C149.98 194.251 149.937 193.5 149.882 193.254C149.715 192.498 149.521 191.75 149.373 190.99C149.23 190.256 149.098 189.508 149.024 188.763C148.96 188.124 149.207 190.035 149.293 190.671C149.489 192.11 149.561 193.551 149.57 195.002C149.57 195.046 149.625 196.069 149.668 195.94C149.917 195.192 149.156 193.822 148.907 193.162C148.446 191.939 148.117 190.455 147.435 189.334C147.057 188.713 147.605 190.782 147.784 191.487C148.271 193.398 148.993 195.23 150.054 196.897C150.29 197.268 150.82 198.304 151.336 198.412C151.541 198.455 151.808 198.126 151.907 198.032C152.478 197.491 153.072 196.979 153.655 196.45" stroke="white" stroke-linecap="square"/>
<path d="M152.44 190.597C152.509 192.576 152.772 194.682 152.453 196.646C152.357 197.234 152.409 198.285 151.815 198.314C151.095 198.35 150.705 197.361 150.324 196.75C149.503 195.433 149.315 193.708 148.245 192.585" stroke="white" stroke-width="7" stroke-linecap="square"/>
<path d="M153.103 197.222C152.892 196.799 152.506 196.424 152.471 195.953C152.458 195.774 152.846 195.814 153.005 195.897C154.831 196.858 156.252 198.938 158.262 199.535C159.179 199.808 157.737 196.697 157.63 196.45" stroke="white" stroke-width="7" stroke-linecap="square"/>
<path d="M164.586 202.522C164.729 203.719 164.792 204.99 165.052 206.172C165.199 206.837 165.008 204.81 164.917 204.136C164.87 203.787 164.697 201.671 164.697 203.099C164.697 203.78 164.789 204.446 164.807 205.123C164.814 205.37 164.889 205.037 164.917 204.952" stroke="white" stroke-width="7" stroke-linecap="square"/>
<path d="M168.535 204.208C168.648 204.288 168.657 204.535 168.686 204.65C168.714 204.761 168.761 204.946 168.798 205.063C168.852 205.233 168.81 205.004 168.81 204.998" stroke="white" stroke-linecap="square"/>
<path d="M168.792 204.667C168.876 204.606 168.946 204.45 168.973 204.628C168.983 204.688 168.994 204.764 168.994 204.823C168.994 204.882 168.994 204.94 168.994 204.998C168.994 205.118 168.994 205.238 168.994 205.357C168.994 205.443 169.049 205.426 169.049 205.347C169.049 205.286 169.049 205.225 169.049 205.163C169.049 205.076 169.031 205.216 169.031 205.246C169.031 205.31 169.049 205.369 169.049 205.43C169.049 205.546 169.067 205.669 169.067 205.779C169.067 205.791 169.086 205.849 169.086 205.825C169.086 205.777 169.086 205.73 169.086 205.682C169.086 205.607 169.086 205.532 169.086 205.457C169.086 205.419 169.09 205.11 169.058 205.11C169.041 205.11 169.049 205.438 169.049 205.472C169.049 205.538 169.065 205.6 169.067 205.664C169.072 205.776 168.977 205.783 168.884 205.825" stroke="white" stroke-linecap="square"/>
<path d="M151.147 151.047C151.101 151.272 150.994 151.478 150.945 151.703C150.916 151.836 151.036 151.53 151.046 151.501C151.093 151.365 151.133 151.216 151.128 151.07C151.127 151.06 150.746 151.349 150.721 151.236C150.694 151.117 150.701 150.994 150.701 150.873C150.701 150.806 150.701 150.738 150.712 150.671C150.731 150.558 150.713 150.665 150.697 150.715C150.684 150.756 150.621 150.991 150.551 150.999C150.55 150.999 150.579 150.884 150.585 150.872C150.604 150.836 150.772 150.618 150.71 150.669C150.599 150.76 150.467 150.833 150.348 150.915C150.286 150.958 150.225 151.004 150.163 151.047C150.114 151.08 150.194 150.996 150.202 150.984C150.292 150.843 150.419 150.748 150.536 150.631C150.589 150.577 150.646 150.509 150.706 150.465C150.82 150.382 150.73 150.376 150.635 150.417C150.566 150.446 150.458 150.493 150.411 150.552C150.378 150.593 150.327 150.613 150.294 150.655C150.272 150.683 150.232 150.673 150.217 150.707C150.207 150.731 150.171 150.762 150.148 150.775C150.116 150.794 150.048 150.84 150.028 150.872C149.998 150.92 149.926 150.912 149.907 150.969" stroke="white" stroke-linecap="square"/>
<path d="M150.818 151.667C150.928 151.664 150.967 151.633 151.05 151.559C151.097 151.517 151.217 151.352 151.293 151.37C151.387 151.393 151.528 151.817 151.588 151.784C151.627 151.762 151.651 151.479 151.573 151.453" stroke="white" stroke-linecap="square"/>
<path d="M150.624 150.523C150.561 150.53 150.488 150.641 150.44 150.678C150.425 150.69 150.198 150.877 150.218 150.765C150.232 150.686 150.324 150.624 150.333 150.543C150.342 150.47 150.369 150.487 150.271 150.547C150.143 150.625 150 150.718 149.896 150.823C149.866 150.853 150.166 150.547 150.081 150.717" stroke="white" stroke-linecap="square"/>
<path d="M150.372 150.407C150.361 150.456 150.193 150.54 150.152 150.573C150.099 150.616 150.049 150.664 149.994 150.706C149.93 150.756 149.737 150.819 149.713 150.892" stroke="white" stroke-linecap="square"/>
<path d="M151.321 150.795C151.428 150.91 151.401 151.018 151.429 151.161C151.466 151.35 151.568 151.521 151.658 151.687C151.744 151.845 151.814 152.01 151.907 152.166C151.978 152.285 151.961 152.144 151.961 152.083C151.961 151.97 151.934 151.872 151.923 151.762C151.908 151.608 151.905 151.469 151.786 151.357C151.755 151.327 151.715 151.329 151.682 151.309C151.6 151.26 151.806 151.455 151.851 151.538C151.983 151.783 152.083 152.042 152.225 152.282C152.309 152.423 152.399 152.576 152.507 152.7C152.612 152.818 152.555 152.603 152.548 152.575C152.477 152.255 152.314 151.951 152.116 151.69C152.049 151.603 152.018 151.567 152.068 151.699C152.125 151.849 152.172 151.999 152.25 152.14C152.312 152.252 152.324 152.378 152.405 152.479C152.443 152.526 152.492 152.58 152.524 152.628C152.546 152.661 152.586 152.677 152.604 152.713C152.623 152.748 152.624 152.821 152.658 152.844C152.719 152.886 152.673 152.979 152.764 153.004C152.817 153.02 152.924 153.119 152.96 153.158C152.973 153.173 153.001 153.225 153.006 153.246C153.012 153.272 152.914 153.069 152.899 153.021C152.838 152.819 152.755 152.649 152.658 152.461C152.629 152.403 152.579 152.362 152.533 152.317C152.481 152.264 152.462 152.184 152.406 152.14C152.336 152.085 152.094 151.603 151.999 151.667" stroke="white" stroke-linecap="square"/>
<path d="M151.535 152.228C151.479 152.256 151.44 152.32 151.399 152.364" stroke="white" stroke-linecap="square"/>
<path d="M150.665 150.195C150.479 150.355 150.283 150.516 150.077 150.647C149.955 150.724 149.806 150.817 149.672 150.865C149.561 150.905 149.653 150.904 149.713 150.833C149.784 150.749 149.887 150.691 149.976 150.629C150.074 150.561 150.171 150.464 150.274 150.412C150.336 150.381 150.377 150.327 150.44 150.301C150.517 150.268 150.515 150.198 150.58 150.28" stroke="white" stroke-linecap="square"/>
<path d="M151.891 151.267C152.011 151.291 152.083 151.439 152.116 151.543C152.146 151.638 152.202 151.705 152.226 151.796C152.304 152.101 152.416 152.385 152.577 152.656C152.727 152.907 152.874 153.166 153.043 153.405C153.105 153.493 153.166 153.556 153.253 153.617" stroke="white" stroke-linecap="square"/>
<path d="M150.435 150.47C150.417 150.324 149.814 150.695 149.757 150.753C149.681 150.828 149.615 150.947 149.525 150.999C149.426 151.055 149.397 151.072 149.492 150.949C149.586 150.829 149.831 150.714 149.973 150.643C150.111 150.573 150.238 150.503 150.369 150.437" stroke="white" stroke-linecap="square"/>
<path d="M152.154 151.781C152.157 151.825 152.189 151.868 152.212 151.904C152.249 151.962 152.27 152.027 152.301 152.09C152.356 152.204 152.404 152.32 152.459 152.431C152.521 152.553 152.612 152.673 152.691 152.785C152.745 152.862 152.792 152.971 152.853 153.039C152.914 153.107 152.952 153.203 152.999 153.28C153.025 153.321 153.045 153.37 153.064 153.414C153.086 153.462 153.126 153.504 153.142 153.552C153.161 153.612 153.217 153.648 153.249 153.699C153.272 153.733 153.289 153.776 153.324 153.8C153.382 153.837 153.433 153.959 153.471 154.015C153.5 154.059 153.584 154.151 153.584 154.202" stroke="white" stroke-linecap="square"/>
<path d="M162.871 199.843C164.435 199.843 164.078 202.499 164.078 203.515C164.078 203.962 164.078 204.409 164.078 204.856C164.078 205.014 163.989 206.473 164.284 205.97C164.617 205.405 164.542 204.815 164.542 204.16C164.542 203.971 164.435 203.334 164.563 203.206C164.808 202.961 164.914 203.669 164.914 203.788C164.914 204.142 164.893 204.503 164.914 204.856C164.93 205.127 165.099 205.46 165.099 204.949C165.099 204.827 165.032 204.152 165.151 204.119C165.387 204.051 165.407 204.749 165.373 204.902C165.228 205.554 165.425 206.341 164.542 206.341" stroke="white" stroke-width="8" stroke-linecap="square"/>
<path d="M150.167 153.177V153.207" stroke="white" stroke-width="4" stroke-linecap="round"/>
<path d="M151.112 151.593C151.096 151.408 150.798 151.665 150.709 151.715C150.611 151.77 150.516 151.835 150.413 151.88C150.322 151.92 150.405 151.897 150.409 151.88C150.444 151.761 150.519 151.676 150.557 151.555C150.613 151.375 150.666 151.195 150.729 151.015C150.749 150.96 150.759 150.889 150.77 150.831C150.794 150.698 150.623 150.873 150.601 150.892C150.445 151.02 150.285 151.157 150.093 151.227C149.95 151.279 149.801 151.355 149.663 151.417C149.601 151.444 149.759 151.319 149.819 151.286C149.934 151.223 149.982 151.101 150.078 151.029C150.15 150.975 150.25 150.909 150.296 150.831C150.385 150.68 150.576 150.617 150.678 150.489C150.726 150.43 151.008 150.082 150.807 150.283C150.655 150.434 150.479 150.568 150.296 150.679C149.932 150.9 149.546 151.111 149.162 151.303C149.085 151.342 148.938 151.468 149.064 151.342C149.099 151.306 149.165 151.253 149.209 151.227C149.308 151.17 149.47 151.04 149.527 150.939C149.584 150.841 149.779 150.81 149.856 150.733C149.952 150.637 150.068 150.554 150.198 150.489C150.328 150.424 150.433 150.317 150.563 150.259C150.603 150.241 150.686 150.15 150.729 150.162C150.783 150.178 150.82 150.382 150.838 150.435" stroke="white" stroke-linecap="round"/>
<path d="M150.96 150.283C151.003 150.374 151.018 150.555 151.097 150.618C151.12 150.636 151.23 150.888 151.234 150.922C151.242 150.988 151.34 151.025 151.354 151.09C151.364 151.135 151.393 151.227 151.432 151.257C151.541 151.345 151.554 151.625 151.637 151.738C151.694 151.817 151.714 151.983 151.798 152.05C151.896 152.129 151.963 152.302 152.019 152.415C152.176 152.729 152.409 153.01 152.551 153.329C152.612 153.467 152.73 153.579 152.803 153.71C152.868 153.827 152.927 153.94 152.994 154.061C153.047 154.156 153.124 154.241 153.201 154.318C153.283 154.401 153.512 154.308 153.519 154.426C153.523 154.489 153.58 154.846 153.58 154.609C153.58 154.446 153.445 154.362 153.428 154.213C153.402 153.993 153.244 153.822 153.186 153.617C153.157 153.516 153.031 153.43 152.977 153.329C152.932 153.244 152.88 153.117 152.803 153.055C152.728 152.995 152.619 152.835 152.581 152.75C152.55 152.681 152.463 152.49 152.407 152.446C152.325 152.38 152.265 152.256 152.216 152.172C152.13 152.026 152.002 151.88 151.935 151.73C151.868 151.579 151.786 151.443 151.728 151.281C151.689 151.171 151.646 151.072 151.6 150.968C151.579 150.923 151.429 150.861 151.523 150.861C151.722 150.861 151.779 151.419 151.919 151.532C152.011 151.605 152.014 151.767 152.063 151.867C152.093 151.926 152.129 151.958 152.146 152.034C152.174 152.16 152.219 152.141 152.133 152.036C151.858 151.7 151.5 151.389 151.295 151C151.211 150.842 151.129 150.692 151.034 150.543C150.97 150.443 150.821 149.971 150.763 149.985C150.695 150.001 150.625 150.031 150.56 150.057C150.551 150.061 150.316 150.18 150.32 150.183C150.359 150.209 150.517 150.06 150.564 150.046C150.806 149.969 150.684 150.165 150.625 150.343" stroke="white" stroke-linecap="round"/>
<path d="M151.782 151.136C151.846 151.136 151.897 151.432 151.958 151.508C151.995 151.554 152.038 151.669 152.072 151.73C152.14 151.852 152.234 151.811 152.087 151.958" stroke="white" stroke-linecap="round"/>
<path d="M150.655 154.426V154.396" stroke="white" stroke-linecap="round"/>
<path d="M151.752 151.258C151.911 151.258 152.129 151.495 152.148 151.654C152.165 151.797 152.361 151.941 152.361 152.095C152.361 152.241 152.477 152.454 152.529 152.598C152.591 152.772 152.69 153.018 152.825 153.14C152.968 153.268 153.026 153.509 153.16 153.658C153.269 153.779 153.389 153.912 153.426 154.076C153.465 154.25 153.653 154.279 153.7 154.443C153.727 154.536 153.92 154.901 153.702 154.792" stroke="white" stroke-linecap="round"/>
<path d="M150.594 155.462C150.581 155.503 150.572 155.542 150.563 155.584" stroke="white" stroke-linecap="round"/>
<path d="M152.319 152.2C152.483 152.307 152.653 152.437 152.765 152.599C152.862 152.739 152.908 152.935 152.954 153.095C153.006 153.277 153.099 153.45 153.165 153.628C153.214 153.762 153.285 153.886 153.353 154.01C153.427 154.144 153.465 154.294 153.541 154.428C153.547 154.44 153.619 154.555 153.62 154.515C153.623 154.453 153.623 154.415 153.645 154.357C153.676 154.273 153.681 154.162 153.657 154.078C153.58 153.81 153.383 153.553 153.189 153.355C153.023 153.187 152.866 153.011 152.685 152.858C152.617 152.8 152.568 152.728 152.511 152.66C152.45 152.587 152.374 152.526 152.319 152.448C152.072 152.099 151.845 151.735 151.687 151.338C151.622 151.176 151.556 151.006 151.513 150.837C151.497 150.772 151.46 150.716 151.442 150.651C151.429 150.606 151.41 150.568 151.389 150.527C151.383 150.515 151.341 150.427 151.371 150.447C151.539 150.553 151.685 150.743 151.78 150.916C151.809 150.966 151.853 151.007 151.879 151.06C151.904 151.11 151.93 151.163 151.96 151.211C151.986 151.253 152.005 151.297 152.024 151.342C152.045 151.393 152.093 151.434 152.115 151.489C152.144 151.56 152.193 151.617 152.227 151.686C152.264 151.762 152.305 151.838 152.344 151.915C152.407 152.041 152.485 152.162 152.523 152.3C152.614 152.623 152.663 152.985 152.871 153.259C152.913 153.314 152.96 153.404 153.016 153.445C153.053 153.472 153.081 153.514 153.106 153.552C153.238 153.755 153.378 153.951 153.521 154.146" stroke="white" stroke-linecap="round"/>
<path d="M231.5 163H258.5" stroke="#F70E0E" stroke-width="2" stroke-linecap="round" stroke-linejoin="round"/>
<path d="M255.5 163V184C255.5 185.5 254 187 252.5 187H237.5C236 187 234.5 185.5 234.5 184V163" stroke="#F70E0E" stroke-width="2" stroke-linecap="round" stroke-linejoin="round"/>
<path d="M239 163V160C239 158.5 240.5 157 242 157H248C249.5 157 251 158.5 251 160V163" stroke="#F70E0E" stroke-width="2" stroke-linecap="round" stroke-linejoin="round"/>
<defs>
<filter id="filter0_f_256_277" x="-0.000244141" y="282.208" width="187.773" height="12.5923" filterUnits="userSpaceOnUse" color-interpolation-filters="sRGB">
<feFlood flood-opacity="0" result="BackgroundImageFix"/>
<feBlend mode="normal" in="SourceGraphic" in2="BackgroundImageFix" result="shape"/>
<feGaussianBlur stdDeviation="0.5" result="effect1_foregroundBlur_256_277"/>
</filter>
</defs>
</svg>
