<svg width="202" height="295" viewBox="0 0 202 295" fill="none" xmlns="http://www.w3.org/2000/svg">
<g filter="url(#filter0_f_35_345)">
<path d="M1.78355 288.364C1.78355 288.376 1.78778 288.411 1.84126 288.471C1.89606 288.532 1.98987 288.606 2.1355 288.688C2.42651 288.851 2.87563 289.02 3.48778 289.191C4.70819 289.531 6.51939 289.862 8.86642 290.178C13.5572 290.81 20.3511 291.381 28.7536 291.86C45.5566 292.818 68.7732 293.41 94.4199 293.41C120.067 293.41 143.283 292.818 160.086 291.86C168.489 291.381 175.283 290.81 179.973 290.178C182.32 289.862 184.132 289.531 185.352 289.191C185.964 289.02 186.413 288.851 186.704 288.688C186.85 288.606 186.944 288.532 186.998 288.471C187.052 288.411 187.056 288.376 187.056 288.364C187.056 288.352 187.052 288.318 186.998 288.258C186.944 288.196 186.85 288.123 186.704 288.041C186.413 287.877 185.964 287.708 185.352 287.538C184.132 287.198 182.32 286.867 179.973 286.551C175.283 285.918 168.489 285.348 160.086 284.869C143.283 283.911 120.067 283.318 94.4199 283.318C68.7732 283.318 45.5566 283.911 28.7536 284.869C20.3511 285.348 13.5572 285.918 8.86642 286.551C6.51939 286.867 4.70819 287.198 3.48778 287.538C2.87563 287.708 2.42651 287.877 2.1355 288.041C1.98987 288.123 1.89606 288.196 1.84126 288.258C1.78778 288.318 1.78355 288.352 1.78355 288.364Z" stroke="black" stroke-width="0.5"/>
</g>
<path d="M135.229 287.512V274.117C134.559 272.777 139.917 271.438 140.587 265.41C190.818 244.648 167.377 172.315 151.973 148.204C154.652 146.865 155.991 145.525 158 142.177C162.689 141.507 196.846 140.167 197.515 106.68C197.515 100.652 198.855 83.2389 176.753 59.128C168.047 51.3003 166.361 51.7608 164.698 57.1188C158.67 76.5415 156.661 83.9087 152.642 89.2667C151.057 87.6809 151 72 147 76.5C140.5 87.5 140.5 83.5 140.5 83C140.5 83 143.936 39.7054 95.7139 36.3566C96.3837 31.6684 103.081 10.2365 97.7232 0.860046C97.7232 0.860046 78.3005 14.9247 89.0164 37.6961C84.998 39.0356 81.6492 39.0356 78.3005 41.7146C78.3005 41.7146 79.5974 16.5894 73.6123 4.87852C72.5854 2.86928 69.8746 -3.15845 66.245 6.21801C58.2081 26.9802 66.1034 38.3827 72.2728 46.4028C66.245 47.7423 47.4921 77.2112 62.2266 96.6339C59.5476 97.3036 56.1988 110.029 60.8871 113.378C60.8871 113.378 33.5138 193.747 36.1064 233.932C37.4459 254.694 54.1896 270.768 54.1896 270.768V288.182C61.5568 291.53 83.6585 292.87 91.6954 288.182V272.108H96.3837V286.172C109.109 292.2 135.229 287.512 135.229 287.512Z" fill="white"/>
<path d="M135.229 274.117L135.676 273.893L135.729 273.999V274.117H135.229ZM135.229 287.512H135.729V287.93L135.317 288.004L135.229 287.512ZM96.3837 286.172L96.1696 286.624L95.8837 286.489V286.172H96.3837ZM96.3837 272.108V271.608H96.8837V272.108H96.3837ZM91.6954 272.108H91.1954V271.608H91.6954V272.108ZM91.6954 288.182H92.1954V288.469L91.9474 288.613L91.6954 288.182ZM54.1896 288.182L53.9827 288.637L53.6896 288.504V288.182H54.1896ZM54.1896 270.768L54.5359 270.407L54.6896 270.555V270.768H54.1896ZM36.1064 233.932L36.6054 233.9L36.1064 233.932ZM60.8871 113.378L61.1777 112.971L61.4802 113.187L61.3604 113.539L60.8871 113.378ZM62.2266 96.6339L62.6249 96.3317L63.0828 96.9352L62.3478 97.1189L62.2266 96.6339ZM72.2728 46.4028L72.6691 46.098L73.148 46.7206L72.3812 46.8909L72.2728 46.4028ZM78.3005 41.7146L78.6128 42.1051L77.7438 42.8003L77.8012 41.6888L78.3005 41.7146ZM89.0164 37.6961L89.4689 37.4832L89.7085 37.9925L89.1746 38.1705L89.0164 37.6961ZM97.7232 0.860046L97.4299 0.455075C97.5449 0.371817 97.6898 0.341356 97.8286 0.371288C97.9674 0.401221 98.0869 0.488725 98.1573 0.611977L97.7232 0.860046ZM95.7139 36.3566L95.6793 36.8554L95.1429 36.8182L95.2189 36.2859L95.7139 36.3566ZM140.5 83H140V82.9802L140.002 82.9604L140.5 83ZM152.642 89.2667L153.042 89.5667L152.697 90.0279L152.289 89.6202L152.642 89.2667ZM164.698 57.1188L165.175 57.267L164.698 57.1188ZM197.515 106.68L198.016 106.68L198.015 106.69L197.515 106.68ZM158 142.177L157.572 141.919L157.694 141.715L157.93 141.682L158 142.177ZM151.973 148.204L151.551 148.474L151.252 148.006L151.749 147.757L151.973 148.204ZM73.6123 4.87852L73.167 5.10606V5.10606L73.6123 4.87852ZM66.245 6.21801L65.7788 6.03752L66.245 6.21801ZM176.753 59.128L177.088 58.7562L177.106 58.7724L177.122 58.7902L176.753 59.128ZM140.587 265.41L140.09 265.355L140.123 265.061L140.396 264.948L140.587 265.41ZM147 76.5L146.57 76.2456L146.594 76.204L146.626 76.1678L147 76.5ZM135.729 274.117V287.512H134.729V274.117H135.729ZM135.229 287.512C135.317 288.004 135.317 288.004 135.317 288.004C135.317 288.004 135.316 288.004 135.316 288.004C135.315 288.004 135.314 288.005 135.312 288.005C135.309 288.006 135.304 288.006 135.297 288.008C135.284 288.01 135.265 288.013 135.24 288.018C135.189 288.026 135.114 288.039 135.016 288.056C134.82 288.089 134.531 288.137 134.16 288.195C133.417 288.312 132.342 288.473 131.014 288.646C128.357 288.993 124.681 289.392 120.604 289.602C112.482 290.02 102.657 289.697 96.1696 286.624L96.5977 285.72C102.836 288.675 112.433 289.022 120.553 288.603C124.597 288.395 128.246 287.999 130.884 287.654C132.203 287.482 133.269 287.323 134.004 287.208C134.372 287.15 134.657 287.103 134.849 287.07C134.946 287.054 135.019 287.041 135.068 287.033C135.092 287.028 135.111 287.025 135.123 287.023C135.129 287.022 135.134 287.021 135.137 287.02C135.138 287.02 135.139 287.02 135.14 287.02C135.14 287.02 135.14 287.02 135.141 287.02C135.141 287.02 135.141 287.02 135.229 287.512ZM95.8837 286.172V272.108H96.8837V286.172H95.8837ZM96.3837 272.608H91.6954V271.608H96.3837V272.608ZM92.1954 272.108V288.182H91.1954V272.108H92.1954ZM91.9474 288.613C89.8564 289.833 86.8938 290.64 83.5524 291.125C80.201 291.611 76.4259 291.779 72.6801 291.695C65.212 291.527 57.7613 290.354 53.9827 288.637L54.3965 287.726C57.9851 289.358 65.2688 290.529 72.7026 290.696C76.4077 290.779 80.1254 290.612 83.4088 290.136C86.702 289.658 89.5161 288.874 91.4435 287.75L91.9474 288.613ZM53.6896 288.182V270.768H54.6896V288.182H53.6896ZM35.6075 233.964C34.3053 213.782 40.5226 183.571 47.0406 158.46C50.3026 145.893 53.6455 134.583 56.1729 126.415C57.4366 122.331 58.4965 119.032 59.2406 116.754C59.6127 115.615 59.9059 114.731 60.106 114.132C60.2061 113.832 60.283 113.603 60.3349 113.45C60.3608 113.373 60.3805 113.314 60.3937 113.275C60.4003 113.256 60.4053 113.241 60.4087 113.231C60.4103 113.226 60.4116 113.223 60.4125 113.22C60.4129 113.219 60.4132 113.218 60.4134 113.217C60.4137 113.217 60.4138 113.216 60.8871 113.378C61.3604 113.539 61.3603 113.539 61.3601 113.54C61.3599 113.54 61.3596 113.541 61.3592 113.542C61.3584 113.545 61.3571 113.548 61.3555 113.553C61.3522 113.563 61.3473 113.577 61.3408 113.596C61.3277 113.635 61.3082 113.693 61.2824 113.769C61.2308 113.922 61.1543 114.15 61.0545 114.448C60.855 115.046 60.5626 115.928 60.1912 117.065C59.4485 119.339 58.3902 122.632 57.1282 126.711C54.604 134.868 51.2657 146.163 48.0085 158.711C41.488 183.831 35.3149 213.898 36.6054 233.9L35.6075 233.964ZM60.5965 113.784C59.2758 112.841 58.565 111.271 58.2498 109.532C57.9333 107.786 58.0015 105.801 58.3003 103.923C58.5994 102.043 59.1343 100.24 59.7737 98.8524C60.093 98.1597 60.4455 97.5551 60.8189 97.0937C61.1827 96.6442 61.6138 96.2717 62.1053 96.1488L62.3478 97.1189C62.1696 97.1635 61.91 97.3352 61.5962 97.7228C61.292 98.0987 60.98 98.6243 60.6819 99.271C60.0865 100.563 59.5749 102.276 59.2879 104.08C59.0007 105.885 58.9433 107.751 59.2338 109.354C59.5255 110.963 60.1543 112.24 61.1777 112.971L60.5965 113.784ZM61.8282 96.9361C54.3129 87.0295 55.3677 74.6017 58.9936 64.5673C60.8096 59.5415 63.2807 55.0833 65.6842 51.7904C66.8857 50.1444 68.0767 48.7806 69.1684 47.7805C70.2445 46.7946 71.2776 46.1118 72.1643 45.9147L72.3812 46.8909C71.761 47.0288 70.8895 47.5599 69.8439 48.5178C68.8138 49.4615 67.666 50.7715 66.4919 52.38C64.1444 55.5963 61.718 59.9704 59.9341 64.9071C56.3602 74.7976 55.4058 86.8156 62.6249 96.3317L61.8282 96.9361ZM77.9881 41.3242C79.7325 39.9287 81.4752 39.2351 83.27 38.7223C84.1605 38.4679 85.0755 38.255 85.9977 38.027C86.9255 37.7977 87.8729 37.5503 88.8583 37.2218L89.1746 38.1705C88.1508 38.5117 87.1727 38.7667 86.2377 38.9978C85.2971 39.2303 84.4123 39.4359 83.5447 39.6838C81.8232 40.1757 80.2172 40.8215 78.6128 42.1051L77.9881 41.3242ZM88.564 37.909C83.1264 26.3541 85.3337 16.975 88.9137 10.497C90.6993 7.26583 92.8234 4.76004 94.5 3.06213C95.3389 2.21266 96.0673 1.5639 96.5877 1.1262C96.848 0.907317 97.0564 0.741094 97.2008 0.628833C97.2729 0.572699 97.3292 0.530045 97.3679 0.501034C97.3872 0.486528 97.4022 0.475432 97.4126 0.467766C97.4178 0.463933 97.4218 0.460957 97.4247 0.458841C97.4262 0.457783 97.4273 0.45694 97.4282 0.456312C97.4286 0.455999 97.4291 0.455689 97.4293 0.455532C97.4296 0.455277 97.4299 0.455075 97.7232 0.860046C98.0164 1.26502 98.0166 1.26492 98.0166 1.26488C98.0165 1.26494 98.0165 1.26495 98.0164 1.26507C98.016 1.2653 98.0154 1.26574 98.0145 1.2664C98.0127 1.26771 98.0098 1.26987 98.0057 1.27289C97.9975 1.27892 97.9848 1.28834 97.9677 1.30114C97.9336 1.32674 97.882 1.36585 97.8146 1.41828C97.6797 1.52317 97.4813 1.68135 97.2314 1.89152C96.7315 2.31194 96.0262 2.93989 95.2116 3.76478C93.5814 5.41561 91.5195 7.8492 89.7889 10.9807C86.3366 17.2278 84.1905 26.2667 89.4689 37.4832L88.564 37.909ZM98.1573 0.611977C99.5551 3.05807 100.147 6.2497 100.264 9.68588C100.38 13.13 100.02 16.8682 99.4732 20.442C98.9263 24.0177 98.1907 27.4429 97.5515 30.2616C96.9077 33.1007 96.3725 35.282 96.2089 36.4274L95.2189 36.2859C95.3902 35.0871 95.9434 32.8314 96.5763 30.0404C97.2138 27.229 97.9432 23.8312 98.4847 20.2908C99.0265 16.7485 99.3777 13.0778 99.2641 9.71971C99.1502 6.35378 98.5703 3.35025 97.289 1.10812L98.1573 0.611977ZM95.7486 35.8578C107.881 36.7004 116.798 40.0587 123.342 44.648C129.886 49.237 134.03 55.0379 136.644 60.7252C139.258 66.4094 140.345 71.9824 140.781 76.1307C140.998 78.206 141.053 79.9278 141.053 81.133C141.054 81.7357 141.04 82.2095 141.026 82.534C141.02 82.6962 141.013 82.8212 141.007 82.9063C141.005 82.9488 141.003 82.9814 141.001 83.0037C141 83.0149 141 83.0235 140.999 83.0295C140.999 83.0325 140.999 83.0348 140.999 83.0365C140.999 83.0373 140.999 83.0381 140.999 83.0385C140.998 83.0391 140.998 83.0395 140.5 83C140.002 82.9604 140.002 82.9605 140.002 82.9605C140.002 82.9602 140.002 82.96 140.002 82.9595C140.002 82.9586 140.002 82.957 140.002 82.9547C140.002 82.9502 140.003 82.9431 140.004 82.9334C140.005 82.9141 140.007 82.8846 140.009 82.8451C140.014 82.7661 140.021 82.6476 140.027 82.4919C140.04 82.1806 140.054 81.7209 140.053 81.1332C140.053 79.9577 140 78.271 139.786 76.2351C139.359 72.161 138.291 66.701 135.736 61.143C133.182 55.588 129.143 49.9374 122.768 45.4668C116.394 40.9966 107.658 37.6873 95.6793 36.8554L95.7486 35.8578ZM152.242 88.9667C154.207 86.3471 155.694 83.2209 157.446 78.2993C159.199 73.3727 161.204 66.6915 164.22 56.9706L165.175 57.267C162.165 66.9687 160.15 73.6825 158.388 78.6347C156.623 83.5918 155.096 86.8282 153.042 89.5667L152.242 88.9667ZM198.015 106.69C197.846 115.152 195.559 121.612 192.128 126.545C188.7 131.475 184.149 134.852 179.488 137.182C170.187 141.833 160.367 142.344 158.071 142.672L157.93 141.682C160.322 141.34 169.925 140.846 179.041 136.288C183.59 134.013 187.996 130.735 191.307 125.974C194.616 121.217 196.85 114.952 197.016 106.67L198.015 106.69ZM158.429 142.434C157.416 144.122 156.555 145.334 155.591 146.298C154.622 147.267 153.569 147.965 152.196 148.652L151.749 147.757C153.055 147.104 154.011 146.463 154.884 145.59C155.762 144.712 156.575 143.58 157.572 141.919L158.429 142.434ZM54.1896 270.768C53.8433 271.129 53.8432 271.129 53.8429 271.128C53.8428 271.128 53.8425 271.128 53.8421 271.128C53.8415 271.127 53.8406 271.126 53.8394 271.125C53.8371 271.123 53.8338 271.12 53.8295 271.115C53.8208 271.107 53.8082 271.095 53.7918 271.079C53.7589 271.047 53.7106 270.999 53.6479 270.936C53.5225 270.811 53.3395 270.626 53.1067 270.383C52.6411 269.898 51.9762 269.183 51.175 268.26C49.5729 266.416 47.4239 263.74 45.2327 260.411C40.8545 253.759 36.285 244.466 35.6075 233.964L36.6054 233.9C37.2674 244.161 41.7394 253.285 46.068 259.861C48.2301 263.146 50.3507 265.786 51.9299 267.604C52.7194 268.513 53.3731 269.216 53.8284 269.691C54.056 269.928 54.234 270.108 54.3545 270.229C54.4148 270.289 54.4607 270.334 54.4913 270.364C54.5065 270.379 54.518 270.39 54.5254 270.397C54.5292 270.401 54.5319 270.404 54.5337 270.405C54.5345 270.406 54.5352 270.407 54.5355 270.407C54.5357 270.407 54.5358 270.407 54.5359 270.407C54.5359 270.408 54.5359 270.407 54.1896 270.768ZM74.0575 4.65098C77.103 10.61 78.2762 19.9158 78.7001 27.6608C78.9128 31.5471 78.9377 35.0651 78.9096 37.6114C78.8955 38.8847 78.8681 39.9157 78.8442 40.6289C78.8323 40.9855 78.8212 41.2627 78.8131 41.4511C78.8091 41.5453 78.8058 41.6173 78.8035 41.6659C78.8023 41.6902 78.8014 41.7086 78.8008 41.7211C78.8005 41.7273 78.8002 41.7321 78.8001 41.7353C78.8 41.7369 78.7999 41.7381 78.7999 41.739C78.7999 41.7394 78.7999 41.7398 78.7999 41.74C78.7998 41.7402 78.7998 41.7404 78.3005 41.7146C77.8012 41.6888 77.8012 41.6888 77.8012 41.6887C77.8012 41.6885 77.8012 41.6883 77.8012 41.688C77.8012 41.6873 77.8013 41.6862 77.8014 41.6848C77.8015 41.6819 77.8017 41.6775 77.802 41.6716C77.8026 41.6599 77.8035 41.6421 77.8046 41.6185C77.8068 41.5713 77.8101 41.5008 77.8141 41.4081C77.822 41.2227 77.833 40.9487 77.8448 40.5954C77.8685 39.8888 77.8957 38.8654 77.9096 37.6003C77.9376 35.0696 77.9128 31.5744 77.7016 27.7155C77.2776 19.9702 76.1067 10.8579 73.167 5.10606L74.0575 4.65098ZM71.8765 46.7077C68.7869 42.6913 65.2167 37.7692 63.4488 31.219C61.6774 24.6557 61.7267 16.5054 65.7788 6.03752L66.7113 6.39851C62.7265 16.6928 62.7049 24.6248 64.4143 30.9584C66.1272 37.305 69.5893 42.0942 72.6691 46.098L71.8765 46.7077ZM73.167 5.10606C72.9029 4.58926 72.5562 3.86726 72.119 3.19389C71.6732 2.50737 71.1889 1.96229 70.6938 1.73197C70.4605 1.62346 70.2325 1.58835 69.9964 1.63458C69.7554 1.68176 69.4634 1.82224 69.1225 2.13752C68.4278 2.78018 67.6112 4.07377 66.7113 6.39851L65.7788 6.03752C66.6936 3.67403 67.577 2.20491 68.4435 1.40343C68.8832 0.996634 69.3371 0.744685 69.8043 0.65321C70.2764 0.560775 70.719 0.640783 71.1156 0.825281C71.8802 1.18099 72.493 1.93355 72.9577 2.64931C73.431 3.37822 73.8082 4.16316 74.0575 4.65098L73.167 5.10606ZM164.22 56.9706C164.637 55.6285 165.076 54.5162 165.665 53.7633C165.966 53.3789 166.318 53.0725 166.741 52.8806C167.167 52.6875 167.633 52.6248 168.14 52.6819C169.128 52.7933 170.293 53.3637 171.715 54.3471C173.15 55.3394 174.906 56.7953 177.088 58.7562L176.419 59.4999C174.247 57.5469 172.528 56.125 171.146 55.1696C169.751 54.2052 168.758 53.7579 168.028 53.6756C167.676 53.636 167.394 53.6825 167.154 53.7914C166.911 53.9016 166.679 54.0899 166.452 54.3798C165.986 54.9756 165.59 55.9301 165.175 57.267L164.22 56.9706ZM177.122 58.7902C188.218 70.8954 193.45 81.3416 195.902 89.542C198.353 97.743 198.015 103.675 198.015 106.68L197.015 106.68C197.015 103.658 197.347 97.8689 194.943 89.8285C192.539 81.7875 187.39 71.4716 176.385 59.4659L177.122 58.7902ZM152.394 147.935C160.137 160.055 169.879 184.246 171.392 208.031C172.149 219.929 170.849 231.76 166.178 241.937C161.501 252.127 153.455 260.632 140.778 265.872L140.396 264.948C152.834 259.807 160.695 251.485 165.269 241.52C169.849 231.541 171.144 219.89 170.394 208.095C168.893 184.495 159.213 160.465 151.551 148.474L152.394 147.935ZM141.084 265.465C140.731 268.641 139.135 270.586 137.748 271.886C137.403 272.209 137.07 272.494 136.778 272.743C136.48 272.997 136.233 273.207 136.038 273.397C135.839 273.592 135.735 273.727 135.691 273.82C135.66 273.886 135.674 273.889 135.676 273.893L134.782 274.341C134.616 274.009 134.652 273.678 134.788 273.391C134.911 273.131 135.122 272.894 135.34 272.681C135.564 272.463 135.841 272.228 136.129 271.982C136.422 271.732 136.738 271.462 137.064 271.157C138.355 269.946 139.773 268.207 140.09 265.355L141.084 265.465ZM141 83C141 83.1362 141.005 83.3914 141.07 83.5681C141.102 83.6531 141.122 83.647 141.091 83.6296C141.04 83.5999 141.027 83.6366 141.133 83.5958C141.251 83.5503 141.451 83.4301 141.747 83.1556C142.039 82.8856 142.402 82.4874 142.849 81.9178C143.744 80.7785 144.95 78.9872 146.57 76.2456L147.43 76.7543C145.8 79.5128 144.569 81.3465 143.635 82.5353C143.169 83.1298 142.77 83.5714 142.427 83.8893C142.088 84.2027 141.78 84.4184 141.492 84.5292C141.192 84.6446 140.875 84.6578 140.594 84.4974C140.335 84.3491 140.203 84.1047 140.133 83.9163C139.995 83.5461 140 83.1137 140 83H141ZM146.626 76.1678C147.156 75.5714 147.721 75.1896 148.327 75.1915C148.956 75.1935 149.424 75.6034 149.758 76.0901C150.097 76.5827 150.371 77.2514 150.602 77.995C150.836 78.7456 151.037 79.606 151.217 80.503C151.573 82.2812 151.861 84.2906 152.146 85.8819C152.291 86.69 152.436 87.3953 152.59 87.9426C152.667 88.2162 152.744 88.4394 152.819 88.6109C152.898 88.7896 152.961 88.8782 152.996 88.9131L152.289 89.6202C152.126 89.4569 152.002 89.2372 151.904 89.0141C151.803 88.784 151.712 88.512 151.628 88.2139C151.46 87.6177 151.308 86.8729 151.162 86.0583C150.866 84.404 150.592 82.4771 150.236 80.6994C150.06 79.8184 149.867 78.9959 149.648 78.2925C149.426 77.5823 149.188 77.0261 148.934 76.6566C148.676 76.2812 148.47 76.192 148.324 76.1915C148.155 76.191 147.844 76.3036 147.374 76.8322L146.626 76.1678Z" fill="black"/>
<path d="M69.5938 239.29C69.5938 239.29 62.8963 233.262 61.5568 218.528M56.8686 218.528C55.5291 222.546 56.8686 227.904 56.8686 227.904" stroke="black"/>
<path d="M95.7139 36.3566C95.7139 36.3566 93.0349 36.3566 91.6954 37.6961" stroke="black"/>
<path d="M152.642 89.2667C152.642 89.2667 149.294 95.9641 145.275 98.6431" stroke="black"/>
<path d="M140.587 83.5692C140.587 83.5692 136.934 91.2235 132.55 94.2852" stroke="black"/>
<path d="M122.504 92.6154C124.513 86.5877 128.531 89.9364 128.531 89.9364" stroke="black"/>
<path d="M93.035 60.4675C93.035 60.4675 93.7047 50.4213 103.081 51.0911M94.3745 85.9179C94.3745 85.9179 91.0257 82.5692 87.677 85.9179" stroke="black"/>
<path d="M91.0257 26.9802C91.0257 34.3474 91.9253 37.0264 93.0349 37.0264C94.1446 37.0264 95.0442 33.2683 95.0442 26.9802C95.0442 20.692 97.0534 14.9247 93.7047 14.9247C92.595 14.9247 91.0257 17.6037 91.0257 26.9802Z" fill="#C4C4C4"/>
<path d="M66.9149 27.6499C68.2544 35.6869 75.8514 45.0634 76.9611 45.0634C78.0708 45.0634 73.6124 36.3566 71.6753 27.6499C71.6753 21.3618 73.6126 16.934 70.3358 15.5945C65.9296 13.7933 66.2452 21.6222 66.9149 27.6499Z" fill="#C4C4C4"/>
<path d="M93.035 37.0264C93.035 37.0264 92.3653 24.3012 94.3745 16.2642M75.6216 41.0449C75.6216 41.0449 71.6031 30.3289 71.6031 17.6037" stroke="black"/>
<path d="M96.3837 272.108C96.3837 272.108 111.118 273.447 125.853 269.429" stroke="black"/>
<path d="M128.828 277.672C132.313 276.742 136.942 271.901 136.942 271.901" stroke="black"/>
<path d="M151.973 148.204C151.973 148.204 135.229 161.599 113.127 144.186" stroke="black"/>
<path d="M158 142.177C158 142.177 102.411 140.837 99.0626 97.3036C99.0626 97.3036 95.0441 96.6338 91.6954 101.992" stroke="black"/>
<path d="M133.05 240.63C133.05 240.837 133.142 241.072 133.386 241.328C133.632 241.586 134.011 241.842 134.518 242.067C135.532 242.517 136.966 242.809 138.578 242.809C140.189 242.809 141.624 242.517 142.637 242.067C143.144 241.842 143.524 241.586 143.769 241.328C144.013 241.072 144.105 240.837 144.105 240.63C144.105 240.422 144.013 240.187 143.769 239.931C143.524 239.673 143.144 239.418 142.637 239.192C141.624 238.742 140.189 238.451 138.578 238.451C136.966 238.451 135.532 238.742 134.518 239.192C134.011 239.418 133.632 239.673 133.386 239.931C133.142 240.187 133.05 240.422 133.05 240.63Z" fill="white" stroke="black"/>
<path d="M161.567 106.242C162.095 108.154 162.969 109.861 163.932 111.072C164.917 112.312 165.874 112.896 166.605 112.896C167.336 112.896 167.971 112.312 168.272 111.072C168.566 109.861 168.498 108.154 167.97 106.242C167.442 104.33 166.568 102.623 165.605 101.412C164.62 100.172 163.663 99.5881 162.932 99.5881C162.201 99.5881 161.566 100.172 161.265 101.412C160.972 102.623 161.04 104.33 161.567 106.242Z" fill="white" stroke="black"/>
<path d="M193.357 113.772C192.626 113.772 191.991 113.189 191.69 111.949C191.396 110.737 191.464 109.03 191.992 107.118C192.514 105.229 193.635 103.182 194.869 101.616C195.487 100.833 196.115 100.192 196.69 99.7537C197.069 99.4644 197.395 99.2861 197.664 99.1964L197.574 109.38C196.967 110.71 196.218 111.826 195.456 112.602C194.667 113.405 193.941 113.772 193.357 113.772Z" fill="white" stroke="black"/>
<path d="M100.638 78.4598C101.412 82.7202 103.146 86.5533 105.298 89.3047C107.458 92.067 109.967 93.6587 112.321 93.6587C114.675 93.6587 116.606 92.067 117.764 89.3047C118.917 86.5533 119.259 82.7202 118.485 78.4598C117.712 74.1995 115.978 70.3664 113.826 67.615C111.665 64.8526 109.156 63.2609 106.802 63.2609C104.449 63.2609 102.518 64.8526 101.36 67.615C100.207 70.3664 99.8649 74.1995 100.638 78.4598Z" stroke="black"/>
<path d="M127.256 75.2563C127.475 79.5772 128.207 83.2 129.216 85.7217C129.722 86.9852 130.284 87.9382 130.857 88.564C131.424 89.1822 131.962 89.4429 132.47 89.4429C132.983 89.4429 133.598 89.1185 134.225 88.3781C134.84 87.6513 135.413 86.5857 135.868 85.2615C136.776 82.6145 137.186 79.0061 136.566 75.2019C135.939 71.3595 134.87 68.4232 133.641 66.4674C132.401 64.4944 131.085 63.64 129.952 63.64C128.845 63.64 128.045 64.3903 127.584 66.3414C127.124 68.2845 127.052 71.2411 127.256 75.2563Z" stroke="black"/>
<ellipse cx="4.01848" cy="6.02773" rx="4.01848" ry="6.02773" transform="matrix(-1 0 0.151951 0.988388 115.136 78.5507)" fill="black"/>
<ellipse cx="3.56674" cy="5.35011" rx="3.56674" ry="5.35011" transform="matrix(-1 0 0.0716715 0.997428 134.462 75.8717)" fill="black"/>
<ellipse cx="0.736722" cy="1.44665" rx="0.736722" ry="1.44665" transform="matrix(-1 0 0.0716715 0.997428 132.247 77.2112)" fill="white"/>
<ellipse cx="1.15754" cy="1.44665" rx="1.15754" ry="1.44665" transform="matrix(-1 0 0.0716715 0.997428 112.25 81.2297)" fill="white"/>
<path d="M80.9794 149.544C80.9795 173.655 87.0072 209.821 84.9979 228.574C83.8497 239.29 62.2266 254.024 46.8223 205.133C46.8223 205.133 44.1435 195.087 44.1435 172.315" stroke="black"/>
<path d="M81.6856 290.626C83.011 290.459 84.4635 290.271 85.2065 290.158C85.1972 288.269 85.0619 286.754 84.7298 285.709C84.5579 285.168 84.3396 284.773 84.0771 284.515C83.8212 284.264 83.5137 284.133 83.1291 284.133C82.3412 284.133 81.3596 284.707 80.5617 285.814C79.7713 286.911 79.1887 288.499 79.1887 290.441C79.1887 290.593 79.1908 290.768 79.195 290.935C79.3365 290.918 79.528 290.894 79.7566 290.866C80.2642 290.804 80.9545 290.718 81.6856 290.626Z" stroke="black" stroke-width="0.5"/>
<path d="M89.9384 282.503C89.2832 282.503 88.6372 282.986 88.1405 283.882C87.6486 284.769 87.3366 286.013 87.3366 287.399V289.286L91.6987 288.483L91.0266 282.963C90.6832 282.66 90.314 282.503 89.9384 282.503Z" stroke="black" stroke-width="0.5"/>
<path d="M124.87 288.997C126.195 288.83 127.647 288.641 128.39 288.528C128.381 286.639 128.246 285.125 127.914 284.079C127.742 283.538 127.524 283.143 127.261 282.885C127.005 282.634 126.698 282.503 126.313 282.503C125.525 282.503 124.544 283.077 123.746 284.185C122.955 285.282 122.373 286.87 122.373 288.812C122.373 288.963 122.375 289.139 122.379 289.305C122.52 289.288 122.712 289.265 122.941 289.237C123.448 289.174 124.139 289.089 124.87 288.997Z" stroke="black" stroke-width="0.5"/>
<path d="M133.122 280.874C132.467 280.874 131.821 281.356 131.325 282.252C130.833 283.14 130.521 284.383 130.521 285.77V287.657L134.883 286.853L134.211 281.334C133.867 281.03 133.498 280.874 133.122 280.874Z" stroke="black" stroke-width="0.5"/>
<defs>
<filter id="filter0_f_35_345" x="0.533569" y="282.068" width="187.773" height="12.5923" filterUnits="userSpaceOnUse" color-interpolation-filters="sRGB">
<feFlood flood-opacity="0" result="BackgroundImageFix"/>
<feBlend mode="normal" in="SourceGraphic" in2="BackgroundImageFix" result="shape"/>
<feGaussianBlur stdDeviation="0.5" result="effect1_foregroundBlur_35_345"/>
</filter>
</defs>
</svg>
